<?xml version="1.0" standalone="no"?>
<!DOCTYPE svg PUBLIC "-//W3C//DTD SVG 20010904//EN"
 "http://www.w3.org/TR/2001/REC-SVG-20010904/DTD/svg10.dtd">
<svg version="1.0" xmlns="http://www.w3.org/2000/svg"
 width="995.000000pt" height="995.000000pt" viewBox="0 0 995.000000 995.000000"
 preserveAspectRatio="xMidYMid meet">
<metadata>
Created by potrace 1.15, written by Peter Selinger 2001-2017
</metadata>
<g transform="translate(0.000000,995.000000) scale(0.100000,-0.100000)"
fill="#000000" stroke="none">
<path d="M4715 9889 c-1274 -52 -2445 -560 -3330 -1444 -393 -392 -687 -800
-935 -1297 -193 -388 -333 -793 -420 -1222 l-30 -147 0 -914 0 -914 30 -147
c194 -954 658 -1822 1340 -2504 598 -599 1327 -1028 2144 -1260 l139 -40 1302
0 1302 0 139 40 c814 231 1544 660 2139 1255 626 626 1075 1425 1290 2299 48
195 96 464 115 641 8 75 10 294 8 695 -5 643 -5 648 -79 1009 -259 1278 -1005
2391 -2090 3119 -170 114 -330 207 -541 312 -533 266 -1094 428 -1708 495
-126 14 -559 37 -615 33 -11 -1 -101 -4 -200 -9z m540 -159 c1522 -111 2876
-907 3709 -2177 451 -689 704 -1433 776 -2278 13 -155 13 -566 0 -731 -68
-857 -341 -1639 -820 -2349 -169 -250 -314 -427 -540 -658 -303 -312 -608
-554 -967 -770 -604 -363 -1227 -573 -1963 -664 -209 -26 -839 -26 -1055 0
-987 118 -1840 485 -2595 1116 -149 125 -449 425 -571 571 -586 704 -949 1503
-1083 2380 -44 288 -51 396 -50 755 0 287 4 369 23 524 134 1113 609 2097
1387 2875 823 823 1903 1318 3064 1405 166 12 523 13 685 1z"/>
<path d="M4683 9320 c-1523 -85 -2890 -944 -3632 -2282 -432 -779 -618 -1692
-525 -2586 143 -1386 930 -2619 2134 -3340 1094 -656 2433 -801 3658 -396
1162 384 2136 1265 2635 2384 531 1191 512 2553 -52 3725 -572 1187 -1640
2055 -2916 2370 -416 103 -886 148 -1302 125z m492 -400 c910 -60 1737 -406
2423 -1013 374 -331 694 -751 925 -1214 70 -140 177 -389 177 -412 0 -8 -380
-11 -1254 -11 l-1255 0 -180 -267 -181 -268 0 -532 0 -533 180 0 180 0 0 401
0 401 92 134 91 134 1243 0 1242 0 6 -27 c24 -119 66 -429 66 -485 l0 -28
-105 0 -105 0 0 -402 0 -403 -91 -132 -90 -133 -1351 0 c-1116 0 -1349 -2
-1345 -13 3 -8 36 -58 74 -113 38 -54 116 -168 173 -252 l103 -152 1266 0
c696 0 1266 -3 1266 -7 0 -18 -113 -289 -174 -418 -384 -806 -1033 -1465
-1837 -1868 -400 -201 -836 -331 -1319 -394 -218 -28 -750 -26 -975 5 -494 67
-894 191 -1330 413 -778 395 -1406 1038 -1789 1831 -80 165 -171 385 -171 413
0 13 130 15 1192 17 l1193 3 177 260 c97 143 177 263 177 266 1 3 -650 5
-1446 5 l-1448 -1 -17 102 c-78 460 -74 992 10 1413 l17 85 1441 5 1441 5
-177 260 -176 260 -1187 3 c-824 1 -1187 5 -1187 13 0 5 24 70 54 142 370 909
1054 1650 1926 2087 511 256 992 382 1610 424 107 7 306 5 445 -4z"/>
<path d="M980 4925 l0 -265 1265 0 1265 0 0 265 0 265 -1265 0 -1265 0 0 -265z"/>
<path d="M4505 4658 c-3 -8 -4 -128 -3 -268 l3 -255 178 -3 177 -2 2 255 c0
140 1 261 2 268 1 18 -352 23 -359 5z"/>
</g>
</svg>
